<?xml version="1.0" encoding="UTF-8" standalone="no"?>
<svg
   xmlns:dc="http://purl.org/dc/elements/1.1/"
   xmlns:cc="http://creativecommons.org/ns#"
   xmlns:rdf="http://www.w3.org/1999/02/22-rdf-syntax-ns#"
   xmlns:svg="http://www.w3.org/2000/svg"
   xmlns="http://www.w3.org/2000/svg"
   xmlns:sodipodi="http://sodipodi.sourceforge.net/DTD/sodipodi-0.dtd"
   xmlns:inkscape="http://www.inkscape.org/namespaces/inkscape"
   data-name="Layer 1"
   viewBox="0 0 93.400002 95.066024"
   x="0px"
   y="0px"
   version="1.1"
   id="svg12"
   sodipodi:docname="asking_question.svg"
   width="93.400002"
   height="95.066025"
   inkscape:version="0.92.3 (2405546, 2018-03-11)">
  <metadata
     id="metadata18">
    <rdf:RDF>
      <cc:Work
         rdf:about="">
        <dc:format>image/svg+xml</dc:format>
        <dc:type
           rdf:resource="http://purl.org/dc/dcmitype/StillImage" />
        <dc:title>Artboard 6</dc:title>
      </cc:Work>
    </rdf:RDF>
  </metadata>
  <defs
     id="defs16" />
  <sodipodi:namedview
     pagecolor="#ffffff"
     bordercolor="#666666"
     borderopacity="1"
     objecttolerance="10"
     gridtolerance="10"
     guidetolerance="10"
     inkscape:pageopacity="0"
     inkscape:pageshadow="2"
     inkscape:window-width="1533"
     inkscape:window-height="845"
     id="namedview14"
     showgrid="false"
     fit-margin-top="0"
     fit-margin-left="0"
     fit-margin-right="0"
     fit-margin-bottom="0"
     inkscape:zoom="5.0445"
     inkscape:cx="29.365991"
     inkscape:cy="0.49640753"
     inkscape:window-x="1347"
     inkscape:window-y="151"
     inkscape:window-maximized="1"
     inkscape:current-layer="svg12" />
  <title
     id="title2">Artboard 6</title>
  <path
     inkscape:connector-curvature="0"
     d="m 75.7,59.666027 c -9.8,0 -17.7,7.9 -17.7,17.7 0,9.8 7.9,17.7 17.7,17.7 9.8,0 17.7,-7.9 17.7,-17.7 0,-9.8 -7.9,-17.7 -17.7,-17.7 z m 1.8,27.3 c 0,0.6 -0.5,1.1 -1.1,1.1 h -2.7 c -0.6,0 -1.1,-0.5 -1.1,-1.1 v -1.8 c 0,-0.6 0.5,-1.1 1.1,-1.1 h 2.7 c 0.6,0 1.1,0.5 1.1,1.1 z m 4.4,-10.6 c -0.7,1 -1.6,1.8 -2.8,2.4 -0.6,0.4 -1,0.8 -1.3,1.3 -0.2,0.3 -0.3,0.7 -0.3,1.2 0,0.4 -0.4,0.7 -0.8,0.7 h -3.4 c -0.4,0 -0.8,-0.4 -0.8,-0.8 0.1,-0.9 0.3,-1.7 0.7,-2.2 0.5,-0.7 1.3,-1.5 2.6,-2.3 0.7,-0.4 1.2,-0.9 1.5,-1.5 0.4,-0.6 0.6,-1.3 0.6,-2.1 0,-0.8 -0.2,-1.5 -0.7,-1.9 -0.4,-0.5 -1.1,-0.7 -1.9,-0.7 -0.7,0 -1.2,0.2 -1.6,0.6 -0.3,0.2 -0.5,0.6 -0.6,1 -0.1,0.5 -0.6,0.8 -1.1,0.8 l -3.1,-0.1 c -0.4,0 -0.7,-0.3 -0.7,-0.7 0.1,-1.7 0.8,-2.9 1.9,-3.8 1.3,-1 3,-1.5 5.2,-1.5 2.3,0 4.1,0.6 5.4,1.7 1.3,1.2 2,2.7 2,4.7 0.3,1.1 -0.1,2.2 -0.8,3.2 z m -47.2,6.1 H 0 v -11.3 c 0,-2.4 1,-4.6 2.9,-6.1 7.9,-6.5 16.3,-11.3 20.7,-13.6 0.5,1.1 5.1,11.6 8,16.1 0.1,0.2 0.4,0.1 0.4,-0.1 0.6,-1.8 2.9,-8 6.4,-7.5 0.2,0 0.4,-0.3 0.2,-0.4 -2.6,-2.1 -9.3,-7.5 -11.8,-10.5 v -7.2 c -1.2,-2.1 -2,-4.2 -2.3,-6.2 -0.9,-0.1 -2,-1.3 -3.2,-5.6 -1.6,-5.6 -0.1,-6.7 1.3,-6.7 -0.8,-3.3 -2.7,-14.5999997 5.8,-19.7999997 0,0 -1.7,-1.4 -1.6,-3.49999998 0,0 9.6,1.09999998 14.3,0.1 4.7,-1 9.7,2.69999998 10.5,6.19999998 0,0 9.5,0.1 5.8,16.8999997 1.5,-0.1 3.1,1 1.5,6.7 -1.2,4.4 -2.4,5.6 -3.2,5.6 -0.3,2 -1.1,4.2 -2.3,6.2 v 7.2 c -2.5,3 -9.2,8.4 -11.8,10.5 -0.2,0.2 0,0.4 0.2,0.4 3.5,-0.4 5.8,5.8 6.4,7.5 0.1,0.2 0.3,0.2 0.4,0.1 2.9,-4.5 7.5,-15 8,-16.1 2.4,1.3 5.9,3.2 9.8,5.8 -7.8,3.6 -13,11.3 -13,20.2 0,1.7 0.2,3.4 0.6,5.1 h -8.8 z"
     id="path976" />
</svg>
