<?xml version="1.0" encoding="UTF-8" standalone="no"?>
<svg
   xmlns:dc="http://purl.org/dc/elements/1.1/"
   xmlns:cc="http://creativecommons.org/ns#"
   xmlns:rdf="http://www.w3.org/1999/02/22-rdf-syntax-ns#"
   xmlns:svg="http://www.w3.org/2000/svg"
   xmlns="http://www.w3.org/2000/svg"
   xmlns:sodipodi="http://sodipodi.sourceforge.net/DTD/sodipodi-0.dtd"
   xmlns:inkscape="http://www.inkscape.org/namespaces/inkscape"
   version="1.1"
   x="0px"
   y="0px"
   viewBox="0 0 66.698456 79.699997"
   xml:space="preserve"
   id="svg8"
   sodipodi:docname="pointer.svg"
   width="66.698456"
   height="79.699997"
   inkscape:version="0.92.3 (2405546, 2018-03-11)"><metadata
     id="metadata14"><rdf:RDF><cc:Work
         rdf:about=""><dc:format>image/svg+xml</dc:format><dc:type
           rdf:resource="http://purl.org/dc/dcmitype/StillImage" /><dc:title></dc:title></cc:Work></rdf:RDF></metadata><defs
     id="defs12" /><sodipodi:namedview
     pagecolor="#ffffff"
     bordercolor="#666666"
     borderopacity="1"
     objecttolerance="10"
     gridtolerance="10"
     guidetolerance="10"
     inkscape:pageopacity="0"
     inkscape:pageshadow="2"
     inkscape:window-width="1533"
     inkscape:window-height="845"
     id="namedview10"
     showgrid="false"
     fit-margin-top="0"
     fit-margin-left="0"
     fit-margin-right="0"
     fit-margin-bottom="0"
     inkscape:zoom="5.0445"
     inkscape:cx="33.39846"
     inkscape:cy="27.2"
     inkscape:window-x="1347"
     inkscape:window-y="151"
     inkscape:window-maximized="1"
     inkscape:current-layer="svg8" /><path
     d="m 66.69846,33.9 c 0,-0.4 -0.2,-2.4 -2,-4.4 -1.9,-2.2 -4.9,-3.4 -8.8,-3.7 -0.4,-0.6 -0.9,-1.2 -1.7,-1.8 -2.2,-1.7 -5.6,-2.6 -10,-2.7 -0.4,-0.5 -1.1,-1.1 -1.9,-1.7 -2,-1.4 -4.5,-2.2 -7.6,-2.5 V 9 c 0,-0.8 0.1,-4.2 -2.2,-6.6 -1,-1.1 -2.9,-2.4 -6.1,-2.4 -3.3,0 -5.2,1.3 -6.3,2.4 -2.1,2.3 -2.1,5.3 -2.1,6 V 37 c -1.9,-2 -4,-4.2 -5.2,-5 -2.5,-1.9 -7.2000004,-0.9 -9.9000004,1.1 -2.60000002,1.9 -3.50000002,4.8 -2.50000002,7.6 1.80000002,5 6.30000002,10 7.40000002,11.2 1,1.9 5.5000004,10.2 9.5000004,13.2 2.1,1.6 3.7,8.2 4.1,12.4 l 0.2,2.2 h 37.8 v -9.9 c 0.5,-1.4 1.7,-4.4 3,-5.8 3.1,-3.1 4.1,-10.9 4.1,-13.3 V 34 Z m -4.9,16.6 c 0,2.9 -1.2,8.4 -2.7,9.9 -2.6,2.6 -4.2,7.6 -4.3,8.1 l -0.1,0.3 v 5.8 h -28.6 c -0.2,-1.1 -0.4,-2.5 -0.8,-4 -1.2,-4.8 -2.8,-7.9 -4.9,-9.5 -2.9,-2.2 -7,-9.3 -8.3,-11.9 l -0.2,-0.3 -0.2,-0.3 c 0,-0.1 -4.9000004,-5.1 -6.6000004,-9.7 -0.2,-0.6 -0.2,-1.1 0.5,-1.8 1.3,-1.2 3.8,-1.5 4.4,-1.3 1.5000004,1.2 6.1000004,6.1 8.7000004,9 l 4.3,4.8 V 8.3 8.2 8.1 c 0,-0.4 0.1,-1.7 0.8,-2.4 0.5,-0.6 1.4,-0.9 2.7,-0.9 1.1,0 1.9,0.3 2.5,0.8 0.8,0.9 0.9,2.5 0.9,3.1 v 10.7 0 15.2 h 4.9 V 22 c 4.5,0.5 5.8,2.4 6,2.7 l 0.2,0.5 v 9.4 h 4.9 v -8.3 c 4.2,0.4 5.8,1.7 6.2,2.3 v 9.5 h 4.9 v -7.3 c 4.3,0.6 5,2.9 5.1,3.4 v 16.3 z"
     id="path2"
     inkscape:connector-curvature="0" /></svg>