<?xml version="1.0" encoding="UTF-8" standalone="no"?>
<svg
   xmlns:dc="http://purl.org/dc/elements/1.1/"
   xmlns:cc="http://creativecommons.org/ns#"
   xmlns:rdf="http://www.w3.org/1999/02/22-rdf-syntax-ns#"
   xmlns:svg="http://www.w3.org/2000/svg"
   xmlns="http://www.w3.org/2000/svg"
   xmlns:sodipodi="http://sodipodi.sourceforge.net/DTD/sodipodi-0.dtd"
   xmlns:inkscape="http://www.inkscape.org/namespaces/inkscape"
   data-name="Layer 1"
   viewBox="0 0 76.426102 96"
   x="0px"
   y="0px"
   version="1.1"
   id="svg12"
   sodipodi:docname="road_with_goal.svg"
   width="76.426102"
   height="96"
   inkscape:version="0.92.3 (2405546, 2018-03-11)">
  <metadata
     id="metadata18">
    <rdf:RDF>
      <cc:Work
         rdf:about="">
        <dc:format>image/svg+xml</dc:format>
        <dc:type
           rdf:resource="http://purl.org/dc/dcmitype/StillImage" />
        <dc:title>Artboard 6</dc:title>
      </cc:Work>
    </rdf:RDF>
  </metadata>
  <defs
     id="defs16" />
  <sodipodi:namedview
     pagecolor="#ffffff"
     bordercolor="#666666"
     borderopacity="1"
     objecttolerance="10"
     gridtolerance="10"
     guidetolerance="10"
     inkscape:pageopacity="0"
     inkscape:pageshadow="2"
     inkscape:window-width="1533"
     inkscape:window-height="845"
     id="namedview14"
     showgrid="false"
     fit-margin-top="0"
     fit-margin-left="0"
     fit-margin-right="0"
     fit-margin-bottom="0"
     inkscape:zoom="5.0445"
     inkscape:cx="38.213073"
     inkscape:cy="35.5"
     inkscape:window-x="1347"
     inkscape:window-y="151"
     inkscape:window-maximized="1"
     inkscape:current-layer="svg12" />
  <title
     id="title2">Artboard 6</title>
  <path
     d="m 12.323073,65.5 c 19.51,10 9.69,22.21 3.61,27.65 a 1.63,1.63 0 0 0 1.08,2.85 h 51.88 a 3.65,3.65 0 0 0 2.89,-1.43 c 16.12,-20.93 -14.91,-30.91 -14.91,-30.91 l -34.34,-11.07 c -7.17,-3 -2.62,-7.93 3.18,-11.92 l 1.29,-0.91 a 3.13,3.13 0 0 0 1.05,-4 3,3 0 0 0 -4,-1.27 L 9.4830728,42 c 0,0 -23.1199998,10.17 2.8400002,23.5 z"
     id="path4"
     inkscape:connector-curvature="0" />
  <path
     d="m 48.213073,51.67 a 4.48,4.48 0 0 0 6.29,0 c 5.71,-5.54 16.86,-18.24 16.86,-31.67 a 20,20 0 0 0 -20,-20 q -0.64,0 -1.29,0 a 20.13,20.13 0 0 0 -18.65,20.21 c 0.13,13.38 11.24,25.97 16.79,31.46 z m -4.81,-31.67 a 8,8 0 1 1 8,8 8,8 0 0 1 -8,-8 z"
     id="path6"
     inkscape:connector-curvature="0" />
</svg>
