<?xml version="1.0" encoding="UTF-8" standalone="no"?>
<svg
   xmlns:dc="http://purl.org/dc/elements/1.1/"
   xmlns:cc="http://creativecommons.org/ns#"
   xmlns:rdf="http://www.w3.org/1999/02/22-rdf-syntax-ns#"
   xmlns:svg="http://www.w3.org/2000/svg"
   xmlns="http://www.w3.org/2000/svg"
   xmlns:sodipodi="http://sodipodi.sourceforge.net/DTD/sodipodi-0.dtd"
   xmlns:inkscape="http://www.inkscape.org/namespaces/inkscape"
   data-name="Layer 1"
   viewBox="0 0 65 61.599998"
   x="0px"
   y="0px"
   version="1.1"
   id="svg12"
   sodipodi:docname="talking_group.svg"
   width="65"
   height="61.599998"
   inkscape:version="0.92.3 (2405546, 2018-03-11)">
  <metadata
     id="metadata18">
    <rdf:RDF>
      <cc:Work
         rdf:about="">
        <dc:format>image/svg+xml</dc:format>
        <dc:type
           rdf:resource="http://purl.org/dc/dcmitype/StillImage" />
        <dc:title>Artboard 6</dc:title>
      </cc:Work>
    </rdf:RDF>
  </metadata>
  <defs
     id="defs16" />
  <sodipodi:namedview
     pagecolor="#ffffff"
     bordercolor="#666666"
     borderopacity="1"
     objecttolerance="10"
     gridtolerance="10"
     guidetolerance="10"
     inkscape:pageopacity="0"
     inkscape:pageshadow="2"
     inkscape:window-width="1533"
     inkscape:window-height="845"
     id="namedview14"
     showgrid="false"
     fit-margin-top="0"
     fit-margin-left="0"
     fit-margin-right="0"
     fit-margin-bottom="0"
     inkscape:zoom="5.0445"
     inkscape:cx="16.189215"
     inkscape:cy="18.007596"
     inkscape:window-x="1347"
     inkscape:window-y="151"
     inkscape:window-maximized="1"
     inkscape:current-layer="svg12" />
  <title
     id="title2">Artboard 6</title>
  <g
     id="g891"
     transform="translate(-0.5,-2.2)">
    <g
       id="g849">
      <path
         inkscape:connector-curvature="0"
         d="M 54.2,34.2 C 53.5,33.7 52,33 50,33.3 c -2.5,0.5 -4.5,2.6 -4.8,5.3 0,0.3 0,0.6 0,0.9 0.3,0 4.6,1.3 7.8,-1.9 0.5,-0.5 1.5,-0.3 1.7,0.4 0.1,0.3 0.6,1.6 1.3,1.5 0.1,0 0.3,0 2.4,0 0.1,-1.4 0,-3.5 -1.3,-4.7 -0.5,-0.4 -1.4,-0.9 -2.9,-0.6 z"
         id="path847" />
    </g>
    <g
       id="g853">
      <path
         inkscape:connector-curvature="0"
         d="m 57.4,45.6 c 1.2,-0.4 2.1,-1.6 2.1,-3.1 0,-0.3 0,-0.7 -0.1,-1 h -3.1 c -1.3,0.1 -2.2,-0.7 -2.8,-1.6 -2,1.5 -4.2,1.8 -5.9,1.8 -1.2,0 -2.1,-0.2 -2.5,-0.3 h -0.7 c -0.1,0.3 -0.2,0.6 -0.2,1 0,1.4 0.9,2.7 2.1,3.1 0.9,6.8 10.2,6.8 11.1,0.1 z"
         id="path851" />
    </g>
    <g
       id="g857">
      <path
         inkscape:connector-curvature="0"
         d="m 59,52.5 c -0.6,-0.1 -2,-0.5 -3,-1.2 -2.4,1.6 -5.3,1.7 -7.6,0.5 0.1,0.6 1.4,9.3 1,11.4 h 15.1 c 0.6,0 1,-0.4 1,-1 v -2.9 c 0,-3.7 -2.9,-6.6 -6.5,-6.8 z"
         id="path855" />
    </g>
    <g
       id="g861">
      <path
         inkscape:connector-curvature="0"
         d="m 9.8,39.5 c 0,0 0.1,0 0.1,0 0.7,0.1 1.2,-1.2 1.3,-1.5 0.1,-0.3 0.4,-0.6 0.7,-0.7 0.3,-0.1 0.7,0 1,0.3 3.1,3.1 7.4,2 7.6,1.9 0.1,0 0.1,0 0.2,0 0,-0.3 0,-0.6 0,-0.9 -0.5,-4.4 -5.3,-6.9 -8.9,-4.5 -3.2,-0.6 -4.4,2 -4.2,5.3 h 2.2 z"
         id="path859" />
    </g>
    <g
       id="g865">
      <path
         inkscape:connector-curvature="0"
         d="m 21.8,42.5 c 0,-0.3 0,-0.7 -0.1,-1 H 21 c -0.3,0.1 -1.3,0.3 -2.5,0.3 -1.7,0 -3.9,-0.3 -5.9,-1.8 -0.6,0.9 -1.5,1.7 -2.8,1.6 H 6.6 c -0.1,0.3 -0.1,0.6 -0.1,1 0,1.4 0.9,2.7 2.1,3.1 0.4,2.9 2.7,5.1 5.5,5.1 2.8,0 5.2,-2.2 5.6,-5.1 1.2,-0.6 2.1,-1.8 2.1,-3.2 z"
         id="path863" />
    </g>
    <g
       id="g869">
      <path
         inkscape:connector-curvature="0"
         d="M 10,51.3 C 9,52 7.7,52.4 7,52.5 3.4,52.6 0.5,55.6 0.5,59.3 v 2.9 c 0,0.6 0.4,1 1,1 h 14.8 c -0.3,-2 0.9,-10.9 1,-11.2 -2.2,1 -5,0.9 -7.3,-0.7 z"
         id="path867" />
    </g>
    <g
       id="g873">
      <path
         inkscape:connector-curvature="0"
         d="m 36.5,46 c 0.1,0 0.1,0 0.2,0 l 6.5,-1.2 c 0.7,-0.1 1.1,-1 0.6,-1.6 0,0 -0.6,-0.8 -1.3,-2.5 -0.4,-1.1 -0.6,-2.3 -0.5,-3.6 0.2,-5.4 -3,-9.5 -9.1,-9.6 -2.8,0 -5.1,0.9 -6.7,2.6 -3.4,3.6 -1.9,7.5 -2.7,10.1 -0.6,2 -1.5,3 -1.5,3 -0.6,0.6 -0.2,1.6 0.6,1.7 l 6.6,0.9 c 1,0.1 1.6,-1.2 0.7,-1.8 -0.1,0 -1.9,-1.3 -1.4,-4.8 1.2,-0.3 3.4,-1 5,-3.4 0.7,1 1.9,2.1 3.5,2.3 0,2.4 -0.3,5.5 -1.1,6.3 -0.7,0.5 -0.3,1.6 0.6,1.6 z"
         id="path871" />
    </g>
    <g
       id="g877">
      <path
         inkscape:connector-curvature="0"
         d="m 37.6,46.3 c -0.4,-0.1 -0.9,0.1 -1.1,0.5 -1.6,3.2 -5.7,3.2 -7.3,0 -0.2,-0.4 -0.6,-0.6 -1.1,-0.5 -3.6,0.6 -8.5,2.6 -8.9,6.2 -1.3,9.4 -1,10.3 -0.9,10.6 0.1,0.4 0.5,0.7 0.9,0.7 h 27.1 c 0.4,0 0.8,-0.3 1,-0.7 0.1,-0.3 0.4,-1.2 -0.9,-10.6 -0.4,-3.6 -5.3,-5.6 -8.8,-6.2 z m -4.7,5.8 c 0.6,0 1.1,0.5 1.1,1.1 0,0.6 -0.5,1.1 -1.1,1.1 -0.6,0 -1.1,-0.5 -1.1,-1.1 0,-0.6 0.5,-1.1 1.1,-1.1 z m 0,3.3 c 0.6,0 1.1,0.5 1.1,1.1 0,0.6 -0.5,1.1 -1.1,1.1 -0.6,0 -1.1,-0.5 -1.1,-1.1 0,-0.6 0.5,-1.1 1.1,-1.1 z m 0,5.8 c -0.7,0 -1.3,-0.6 -1.3,-1.3 0,-0.7 0.6,-1.3 1.3,-1.3 0.7,0 1.3,0.6 1.3,1.3 -0.1,0.7 -0.6,1.3 -1.3,1.3 z"
         id="path875" />
    </g>
    <g
       id="g881">
      <path
         inkscape:connector-curvature="0"
         d="m 11.8,16.6 -1.4,3.6 c -0.3,0.9 0.6,1.7 1.4,1.2 L 17,18.5 c 0.7,0.1 1.4,0.2 2.2,0.2 C 17.4,16.8 16.4,14.5 16.4,12 16.4,8.9 18,6.1 20.7,4 20.2,4 19.8,4 19.3,4 13.4,4 8.6,7.3 8.6,11.4 c 0,2 1.2,3.9 3.2,5.2 z"
         id="path879" />
    </g>
    <g
       id="g885">
      <path
         inkscape:connector-curvature="0"
         d="m 49.2,12.1 c 0,2.4 -1,4.8 -2.8,6.7 1.1,0.1 2.3,0 3.4,-0.1 l 5.3,2.9 c 0.8,0.4 1.7,-0.4 1.4,-1.2 l -1.3,-3.6 c 2,-1.4 3.1,-3.2 3.1,-5.2 0,-4.1 -4.8,-7.4 -10.7,-7.4 -0.8,0 -1.7,0.1 -2.5,0.2 2.5,1.9 4.1,4.7 4.1,7.7 z"
         id="path883" />
    </g>
    <g
       id="g889">
      <path
         inkscape:connector-curvature="0"
         d="m 32.8,21.9 c 1,0 2.1,-0.1 3.1,-0.2 l 5.1,3.9 c 0.6,0.5 1.6,0.1 1.6,-0.8 v -5.5 c 2.9,-1.8 4.6,-4.4 4.6,-7.2 0,-5.4 -6.5,-9.9 -14.4,-9.9 -7.9,0 -14.4,4.4 -14.4,9.9 0,5.5 6.3,9.8 14.4,9.8 z"
         id="path887" />
    </g>
  </g>
</svg>
