<?xml version="1.0" encoding="UTF-8" standalone="no"?>
<svg
   xmlns:dc="http://purl.org/dc/elements/1.1/"
   xmlns:cc="http://creativecommons.org/ns#"
   xmlns:rdf="http://www.w3.org/1999/02/22-rdf-syntax-ns#"
   xmlns:svg="http://www.w3.org/2000/svg"
   xmlns="http://www.w3.org/2000/svg"
   xmlns:sodipodi="http://sodipodi.sourceforge.net/DTD/sodipodi-0.dtd"
   xmlns:inkscape="http://www.inkscape.org/namespaces/inkscape"
   viewBox="0 0 80 76"
   x="0px"
   y="0px"
   version="1.1"
   id="svg16"
   sodipodi:docname="translate.svg"
   width="80"
   height="76"
   inkscape:version="0.92.3 (2405546, 2018-03-11)">
  <metadata
     id="metadata22">
    <rdf:RDF>
      <cc:Work
         rdf:about="">
        <dc:format>image/svg+xml</dc:format>
        <dc:type
           rdf:resource="http://purl.org/dc/dcmitype/StillImage" />
        <dc:title>language</dc:title>
      </cc:Work>
    </rdf:RDF>
  </metadata>
  <defs
     id="defs20" />
  <sodipodi:namedview
     pagecolor="#ffffff"
     bordercolor="#666666"
     borderopacity="1"
     objecttolerance="10"
     gridtolerance="10"
     guidetolerance="10"
     inkscape:pageopacity="0"
     inkscape:pageshadow="2"
     inkscape:window-width="1280"
     inkscape:window-height="996"
     id="namedview18"
     showgrid="false"
     fit-margin-top="0"
     fit-margin-left="0"
     fit-margin-right="0"
     fit-margin-bottom="0"
     inkscape:zoom="3.739125"
     inkscape:cx="40"
     inkscape:cy="27.5"
     inkscape:window-x="0"
     inkscape:window-y="0"
     inkscape:window-maximized="1"
     inkscape:current-layer="svg16" />
  <title
     id="title2">language</title>
  <g
     data-name="Layer 9"
     id="g10"
     transform="translate(-10,-14)">
    <polygon
       points="30,33.49 27.08,43 32.93,43 "
       id="polygon4" />
    <path
       d="M 38,14 H 18 a 8,8 0 0 0 -8,8 V 90 L 34,66 H 52 Z M 34.16,47 H 25.85 L 24,53 h -4 l 8,-26 h 4 l 8,26 h -4 z"
       id="path6"
       inkscape:connector-curvature="0" />
    <path
       d="M 82,14 H 42 l 14,52 h 26 a 8,8 0 0 0 8,-8 V 22 A 8,8 0 0 0 82,14 Z M 68,27 h 4 v 4 H 68 Z M 80,53 A 26.81,26.81 0 0 1 69.36,50.9 21.79,21.79 0 0 1 60,53 v -4 a 17.9,17.9 0 0 0 5,-0.7 C 61.91,45.84 60,42.61 60,39 h 4 c 0,2.88 2.08,5.51 5.32,7.36 A 13.54,13.54 0 0 0 76,35 H 60 v -4 h 20 v 4 0 A 17.15,17.15 0 0 1 73.63,48.13 23.34,23.34 0 0 0 80,49 Z"
       id="path8"
       inkscape:connector-curvature="0" />
  </g>
</svg>
